<svg width="194" height="52" viewBox="0 0 194 52" fill="none" xmlns="http://www.w3.org/2000/svg">
<path d="M2 4.1333C39.8809 21.7069 61.1191 31.5597 99 49.1333" stroke="#4C4C4C" stroke-width="6"/>
<path d="M192 4.1333C154.51 21.7069 133.49 31.5597 96 49.1333" stroke="#4C4C4C" stroke-width="6"/>
<path d="M27.8989 4.34943C55.5305 17.1697 71.0225 24.3576 98.6541 37.1779" stroke="#4C4C4C" stroke-width="6"/>
<path d="M166.891 4.1333C139.309 17.0596 123.845 24.3069 96.2626 37.2332" stroke="#4C4C4C" stroke-width="6"/>
<path d="M52.8326 3.48682C70.7924 11.8196 80.8617 16.4915 98.8214 24.8243" stroke="#4C4C4C" stroke-width="6"/>
<path d="M140.789 4.1333C123.298 12.3305 113.491 16.9263 96 25.1235" stroke="#4C4C4C" stroke-width="6"/>
<path d="M78.0608 3C86.1446 6.75065 90.6768 8.85349 98.7606 12.6041" stroke="#4C4C4C" stroke-width="6"/>
<path d="M116.051 3.24115C108.201 6.92027 103.799 8.98301 95.9488 12.6621" stroke="#4C4C4C" stroke-width="6"/>
</svg>
