<?xml version="1.0" encoding="utf-8"?>
<!-- Generator: Adobe Illustrator 23.0.5, SVG Export Plug-In . SVG Version: 6.00 Build 0)  -->
<svg version="1.1" id="Слой_1" xmlns="http://www.w3.org/2000/svg" xmlns:xlink="http://www.w3.org/1999/xlink" x="0px" y="0px"
	 viewBox="0 0 1714 160" style="enable-background:new 0 0 1714 160;" xml:space="preserve">
<style type="text/css">
	.st0{fill-opacity:0.8;}
	.st1{fill:none;stroke:#333333;stroke-width:4;}
	.st2{fill:none;stroke:url(#SVGID_1_);stroke-width:4;}
	.st3{fill:none;stroke:url(#SVGID_2_);stroke-width:4;}
	.st4{fill:none;stroke:url(#SVGID_3_);stroke-width:4;}
	.st5{fill:none;stroke:url(#SVGID_4_);stroke-width:4;}
	.st6{fill:none;stroke:url(#SVGID_5_);stroke-width:4;}
	.st7{fill:none;stroke:url(#SVGID_6_);stroke-width:4;}
	.st8{fill:none;stroke:url(#SVGID_7_);stroke-width:4;}
	.st9{fill:none;stroke:#4D4D4D;stroke-width:4;}
</style>
<g>
	<path class="st0" d="M1706.1,5V2.6H7.5v10.3c1.5,1.8,2.9,3.8,4,5.9c2.4,1.2,4.7,2.8,6.6,4.7c1.2,0.6,2.4,1.4,3.5,2.2h0.1
		c1.9,0,3.7,0.2,5.5,0.5c1.2-0.2,2.5-0.3,3.7-0.3c2.3,0,4.4,0.3,6.5,0.8c2.5-0.7,5.1-1.1,7.7-1.1c3.1,0,6,0.5,8.8,1.4
		c2.3-0.6,4.8-1,7.2-1c2.3,0,4.6,0.3,6.7,0.8c2.3-0.6,4.6-0.9,7-0.9c1.2,0,2.4,0.1,3.5,0.2c1.9-0.4,3.8-0.6,5.7-0.6
		c2.5,0,4.8,0.3,7.1,0.9c1.7-0.3,3.4-0.5,5.2-0.5c2.9,0,5.7,0.4,8.3,1.2c2.2-0.5,4.4-0.8,6.7-0.8c2,0,3.9,0.2,5.7,0.6
		c2.6-0.8,5.2-1.2,7.9-1.2c2.7,0,5.3,0.4,7.8,1.1c2.7-0.9,5.5-1.3,8.3-1.3c3.1,0,6,0.5,8.7,1.4c2.3-0.6,4.8-1,7.2-1
		c2.4,0,4.7,0.3,7,0.9c2.7-0.9,5.6-1.4,8.5-1.4c2.8,0,5.5,0.4,8.1,1.2c1.7-0.3,3.5-0.5,5.2-0.5c2.5,0,4.9,0.3,7.2,0.9
		c1.9-0.4,3.9-0.7,5.9-0.7c1.1,0,2.2,0.1,3.3,0.2c1.1-0.1,2.1-0.2,3.2-0.2c2.3,0,4.5,0.3,6.6,0.8c0.8,0,1.5,0,2.3,0.1
		c1.9-0.4,3.8-0.6,5.8-0.6c1.7,0,3.3,0.2,4.9,0.4c2.3-0.6,4.6-0.9,7-0.9c2.3,0,4.5,0.3,6.6,0.8c2.2-0.6,4.6-0.9,6.9-0.9
		s4.6,0.3,6.7,0.8c2.4-0.7,4.9-1.1,7.4-1.1c3.1,0,6,0.5,8.7,1.4c2.5-0.7,5-1.1,7.6-1.1c2.5,0,5,0.3,7.3,0.9c1.8-0.4,3.6-0.6,5.4-0.6
		c1.7,0,3.3,0.2,4.8,0.4c1.9-0.4,3.9-0.7,5.9-0.7c2.7,0,5.2,0.4,7.6,1c2.4-0.7,4.8-1,7.3-1c2.7,0,5.2,0.4,7.7,1
		c3.9-0.6,7.8-1,11.7-1c2.1,0,4.1,0.2,6,0.7c1.7-0.3,3.4-0.5,5.2-0.4h0.5c2.7,0,5.3,0.4,7.9,1.1c0.5,0,1.1-0.1,1.6-0.1
		c0.6,0,1.2,0,1.9,0.1c2.3-0.6,4.7-1,7.1-1c2.4,0,4.7,0.3,6.9,0.8c1.4-0.2,2.8-0.3,4.2-0.3c1.5,0,3,0.1,4.4,0.4
		c1.4-0.2,2.9-0.4,4.3-0.4h2.3c1.6,0,3.1,0.1,4.6,0.4c2.6-0.8,5.4-1.3,8.1-1.3c2.8,0,5.5,0.4,8.1,1.2c0.7-0.1,1.5-0.1,2.2-0.1
		c1.9-0.4,3.9-0.7,5.8-0.7c2.3,0,4.5,0.3,6.5,0.8c0.3,0,0.6,0.1,1,0.1c1.1-0.1,2.1-0.2,3.2-0.2c1.1,0,2.1,0.1,3.1,0.2
		c1.3-0.2,2.7-0.3,4-0.3c1.2,0,2.3,0.1,3.4,0.2c2.2-0.6,4.4-0.9,6.7-0.9c2.2,0,4.4,0.3,6.4,0.7c1.6-0.3,3.3-0.5,4.9-0.5
		c1.5,0,2.9,0.1,4.3,0.3c2-0.5,4-0.7,6-0.7c1.5,0,2.9,0.1,4.3,0.3c1-0.1,2.1-0.2,3.1-0.2c2.4,0,4.8,0.3,7,0.9
		c2.2-0.6,4.4-0.9,6.6-0.9c1.5-0.3,3-0.4,4.5-0.4c3.1,0,6,0.5,8.7,1.4c1.4-0.2,2.8-0.4,4.3-0.4s2.9,0.1,4.3,0.3
		c0.4,0,0.9-0.1,1.3-0.1c2.9-1,6-1.6,9.2-1.6c1.4,0,2.8,0.1,4.1,0.3c1.3-0.2,2.6-0.3,3.8-0.3c3.4,0,6.7,0.6,9.6,1.7
		c3.2-0.1,6.4-0.1,9.6,0.2c1.5-0.3,3.1-0.4,4.7-0.4c3,0,5.8,0.5,8.5,1.3h0.6c3.1,0,6.1,0.5,8.9,1.4h0.3c6.3,0,12,2,16.6,5.4
		c4.4,1.3,8.2,3.6,11.4,6.7c2,1.1,3.8,2.4,5.4,3.9c3.5,2.4,6.5,5.6,8.7,9.3c3.8,3.3,6.7,7.7,8.5,12.6c3.4,4.2,5.8,9.4,6.6,15.1
		c2.3,4,3.9,8.8,4.2,13.7c0.4,1.8,0.7,3.6,0.9,5.4c0.8,2.5,1.2,5.1,1.3,7.8c0.1,1.2,0,2.3-0.1,3.5c0.1,0.9,0.2,1.8,0.3,2.8
		c0.8,2.1,1.3,4.4,1.6,6.7c1.1,1.9,2,3.9,2.6,6c0.1,0.1,0.2,0.3,0.2,0.4c2.3,2.3,4.1,5,5.6,7.9c1.8,1.4,3.5,3.1,5,5
		c1.5,0.7,2.9,1.5,4.3,2.4c2.9,0.9,5.7,2.2,8.1,3.9c1.4,0.5,2.8,1.2,4.1,1.9H1051c0.4-0.2,0.8-0.4,1.2-0.6c3-2.2,6.4-3.8,9.9-4.7
		c1.9-1.9,4-3.5,6.3-4.8c1.2-1.8,2.7-3.4,4.3-4.9c0.9-1.9,2-3.7,3.2-5.3c1-3.7,2.8-7.1,5.3-10.1c0-2.6,0.4-5.1,1.2-7.5
		c0-2.3,0.3-4.6,0.9-6.7c-0.1-0.6-0.1-1.1-0.1-1.7c-0.2-3.5,0.5-6.8,1.7-10c-0.2-5.8,1.7-11.3,4.9-15.9c0.8-5,3.1-9.6,6.4-13.4
		c2.2-6.5,6.9-12,12.8-15.6c3.5-4.6,8.3-8.1,13.7-10.2c4-3.2,8.9-5.3,13.9-6.1c4.1-2.2,8.8-3.5,13.5-3.5h0.4c2.2-0.6,4.6-1,6.9-1
		c2.4-0.7,4.9-1,7.4-1h0.7c1.7-0.3,3.5-0.5,5.2-0.5c2.2,0,4.4,0.3,6.4,0.7c2.9-1,6.1-1.6,9.2-1.6c3.6,0,6.9,0.7,10,1.8
		c2.9-1,5.9-1.6,9-1.6c2.9,0,5.7,0.5,8.4,1.3c1.2-0.2,2.3-0.2,3.5-0.2c1.4,0,2.7,0.1,4,0.3h0.9c1.2,0,2.5,0.1,3.6,0.2
		c3-1.1,6.1-1.6,9.3-1.6c3.1,0,6.1,0.5,8.9,1.4c2.1-0.5,4.3-0.8,6.4-0.8c2.3,0,4.5,0.3,6.7,0.8c1.9-0.4,3.9-0.7,5.9-0.7
		s3.9,0.2,5.8,0.6c1.8-0.4,3.7-0.6,5.6-0.6h1.4c1.5-0.3,3.1-0.4,4.6-0.4c2.5,0,4.9,0.3,7.2,0.9h1c1,0,2.1,0.1,3.1,0.2
		c1.3-0.2,2.5-0.3,3.8-0.3c1.9,0,3.7,0.2,5.4,0.5c1.9-0.4,3.8-0.6,5.8-0.6s3.9,0.2,5.7,0.6c2.1-0.5,4.4-0.8,6.6-0.8
		c1.8,0,3.6,0.2,5.4,0.5c2-0.5,4.1-0.8,6.3-0.8c2.4,0,4.8,0.3,7,0.9c1.1-0.1,2.2-0.2,3.4-0.2c0.9,0,1.7,0,2.5,0.1
		c0.8-0.1,1.5-0.1,2.3-0.1c2,0,3.9,0.2,5.7,0.6c2.8-0.9,5.8-1.5,8.7-1.5c3.1,0,6,0.5,8.8,1.4c2.6-0.8,5.3-1.3,8.1-1.3
		c0.7,0,1.5,0,2.2,0.1c1.8-0.4,3.7-0.6,5.6-0.6c3.4,0,6.6,0.6,9.5,1.6c1.7-0.3,3.3-0.5,5-0.5c1.9,0,3.7,0.2,5.4,0.5
		c1.5-0.3,3-0.4,4.5-0.4c0.9,0,1.8,0.1,2.6,0.1c2.8-0.9,5.7-1.4,8.6-1.4c3.2,0,6.3,0.5,9.1,1.5c2-0.5,4-0.7,6.1-0.7
		c2.4,0,4.7,0.3,6.8,0.8c2.1-0.5,4.4-0.8,6.6-0.8c2.7,0,5.4,0.4,7.8,1.1c0.6,0,1.2-0.1,1.8-0.1c0.9,0,1.7,0,2.5,0.1
		c2.4-0.7,4.8-1,7.3-1c1.4,0,2.8,0.1,4.2,0.3c1-0.1,2-0.2,3-0.2c1.9,0,3.8,0.2,5.6,0.5h1.2c1.1,0,2.3,0.1,3.4,0.2
		c2.2-0.5,4.4-0.8,6.6-0.8c1.8,0,3.5,0.2,5.1,0.5c2.7-0.9,5.6-1.3,8.4-1.3c3.3,0,6.4,0.6,9.3,1.6c2.1-0.5,4.2-0.8,6.4-0.8
		c2.5,0,5,0.3,7.3,0.9c2.6-0.8,5.2-1.2,7.9-1.2c2.4,0,4.7,0.3,6.8,0.8c2.6-0.8,5.3-1.2,8-1.2c3,0,5.8,0.5,8.4,1.3
		c1.2-0.2,2.4-0.3,3.6-0.3c2.2,0,4.4,0.3,6.4,0.7c2.3-0.6,4.8-1,7.2-1c2.4,0,4.7,0.3,6.9,0.8c1.8-0.4,3.7-0.6,5.6-0.6
		c1.6,0,3.2,0.1,4.7,0.4c1.5-0.3,3-0.4,4.6-0.4c0.6,0,1.2,0,1.7,0.1c1-0.1,2-0.2,3-0.2c2.2,0,4.3,0.2,6.3,0.7
		c2.7-0.9,5.5-1.3,8.4-1.3c3,0,5.9,0.5,8.5,1.3c2.5-0.8,5.2-1.2,7.8-1.2c3.3,0,6.3,0.5,9.2,1.5c1.9-0.4,3.8-0.6,5.7-0.6
		c0.9,0,1.8,0.1,2.7,0.1c2.7-0.8,5.4-1.3,8.2-1.3c3.2,0,6.2,0.5,9,1.5c2.6-0.8,5.3-1.2,8-1.2c2.4,0,4.7,0.3,7,0.9
		c2.7-0.9,5.6-1.4,8.5-1.4c1-0.7,2-1.3,3.1-1.8c1.7-2.5,3.9-4.7,6.3-6.5c1-2.3,2.4-4.4,4-6.4v-2C1706.3,7.6,1706.1,6.3,1706.1,5z"/>
</g>
<path class="st1" d="M7,3.3c1.5,20.5,18.5,23.2,21,23.2"/>
<linearGradient id="SVGID_1_" gradientUnits="userSpaceOnUse" x1="27.5267" y1="135.2244" x2="541.9971" y2="135.7246" gradientTransform="matrix(1 0 0 -1 0 162)">
	<stop  offset="0" style="stop-color:#333333"/>
	<stop  offset="1" style="stop-color:#B3B3B3"/>
</linearGradient>
<line class="st2" x1="27.5" y1="26.5" x2="542" y2="26.5"/>
<path class="st1" d="M1706.8,3.3c-1.5,20.5-18.5,23.2-21,23.2"/>
<linearGradient id="SVGID_2_" gradientUnits="userSpaceOnUse" x1="-206.8652" y1="163.7249" x2="307.1379" y2="164.2247" gradientTransform="matrix(-1 0 0 -1 1478.92 190.5)">
	<stop  offset="0" style="stop-color:#333333"/>
	<stop  offset="1" style="stop-color:#B3B3B3"/>
</linearGradient>
<line class="st3" x1="1685.8" y1="26.5" x2="1171.8" y2="26.5"/>
<linearGradient id="SVGID_3_" gradientUnits="userSpaceOnUse" x1="1125.8613" y1="135.4874" x2="1125.8613" y2="49.9787" gradientTransform="matrix(1 0 0 -1 0 162)">
	<stop  offset="0" style="stop-color:#B3B3B3"/>
	<stop  offset="1" style="stop-color:#C3C5C4"/>
</linearGradient>
<path class="st4" d="M1171.9,26.5c-90.1-1-90.1,85.5-90.1,85.5"/>
<linearGradient id="SVGID_4_" gradientUnits="userSpaceOnUse" x1="1059.5149" y1="32.61" x2="1067.6948" y2="22.122" gradientTransform="matrix(1 0 0 -1 0 162)">
	<stop  offset="0" style="stop-color:#C3C4C3"/>
	<stop  offset="1" style="stop-color:#D2D3D2"/>
</linearGradient>
<path class="st5" d="M1081.8,112c0,12.5-14.5,39-42,38.5"/>
<linearGradient id="SVGID_5_" gradientUnits="userSpaceOnUse" x1="588.0546" y1="135.4874" x2="588.0546" y2="49.9787" gradientTransform="matrix(1 0 0 -1 0 162)">
	<stop  offset="0" style="stop-color:#B3B3B3"/>
	<stop  offset="1" style="stop-color:#C3C5C4"/>
</linearGradient>
<path class="st6" d="M542,26.5c90.1-1,90.1,85.5,90.1,85.5"/>
<linearGradient id="SVGID_6_" gradientUnits="userSpaceOnUse" x1="654.3984" y1="32.6109" x2="646.2173" y2="22.1229" gradientTransform="matrix(1 0 0 -1 0 162)">
	<stop  offset="0" style="stop-color:#C3C4C3"/>
	<stop  offset="1" style="stop-color:#D2D3D2"/>
</linearGradient>
<path class="st7" d="M632.1,112c0,12.5,14.5,39,42,38.5"/>
<linearGradient id="SVGID_7_" gradientUnits="userSpaceOnUse" x1="1040.0002" y1="11.4797" x2="673.9991" y2="11.4777" gradientTransform="matrix(1 0 0 -1 0 162)">
	<stop  offset="0" style="stop-color:#C9CAC9"/>
	<stop  offset="0.4844" style="stop-color:#FFFFFF"/>
	<stop  offset="1" style="stop-color:#CFD0CF"/>
</linearGradient>
<line class="st8" x1="674" y1="150.5" x2="1040" y2="150.5"/>
<line class="st9" x1="4" y1="2" x2="1710" y2="2"/>
</svg>
